<?xml version="1.0" standalone="no"?>
<!DOCTYPE svg PUBLIC "-//W3C//DTD SVG 20010904//EN"
 "http://www.w3.org/TR/2001/REC-SVG-20010904/DTD/svg10.dtd">
<svg version="1.0" xmlns="http://www.w3.org/2000/svg"
 width="700.000000pt" height="700.000000pt" viewBox="0 0 700.000000 700.000000"
 preserveAspectRatio="xMidYMid meet">
<metadata>
Created by potrace 1.14, written by Peter Selinger 2001-2017
</metadata>
<g transform="translate(0.000000,700.000000) scale(0.100000,-0.100000)"
fill="#000000" stroke="none">
<path d="M3585 6396 c-27 -10 -81 -20 -120 -22 -89 -3 -204 -12 -232 -18 -11
-2 -43 -8 -70 -12 -70 -10 -241 -68 -338 -113 l-83 -39 9 31 c5 17 7 32 6 34
-6 5 -55 -51 -69 -78 -8 -15 -52 -55 -99 -91 -167 -125 -285 -257 -386 -427
-49 -83 -133 -267 -133 -292 0 -5 -18 -51 -41 -101 -22 -51 -44 -102 -49 -113
-42 -98 -82 -285 -94 -448 -3 -38 -11 -55 -41 -88 -146 -162 -108 -415 81
-525 31 -18 46 -35 55 -62 46 -141 176 -372 274 -487 136 -159 323 -309 497
-400 21 -11 40 -25 42 -32 19 -49 27 -261 13 -358 -19 -137 -109 -365 -145
-365 -11 0 -29 -22 -50 -62 -18 -35 -32 -68 -32 -74 0 -6 -30 -19 -67 -29
-287 -76 -652 -246 -948 -440 -533 -349 -954 -821 -1236 -1386 -57 -115 -169
-375 -169 -394 0 -3 1512 -5 3360 -5 1848 0 3360 2 3360 5 0 3 -17 49 -39 103
-126 318 -285 599 -495 872 -44 58 -85 110 -91 116 -5 6 -39 44 -75 84 -353
396 -815 723 -1307 924 -115 47 -315 115 -399 136 -48 12 -51 15 -84 81 -19
38 -41 70 -51 72 -32 9 -118 217 -134 324 -3 21 -8 50 -10 63 -6 31 -6 202 0
250 13 95 27 130 59 147 100 52 273 187 364 286 26 28 54 58 62 67 48 50 210
294 210 316 0 4 11 27 23 53 13 25 32 70 41 99 14 40 24 56 45 63 187 68 281
233 236 414 -20 76 -62 134 -152 206 -15 12 -21 33 -26 92 -4 42 -14 109 -22
150 -11 55 -13 86 -5 124 14 79 9 272 -10 361 -25 116 -48 183 -91 262 -4 8
-19 35 -32 60 -13 25 -27 69 -30 99 -14 119 -97 234 -209 291 -77 38 -97 39
-63 3 27 -29 88 -123 80 -123 -3 0 -31 19 -64 43 -140 103 -317 172 -496 193
-33 3 -82 15 -110 26 -84 34 -193 66 -288 84 l-90 18 34 28 33 28 -29 -2 c-17
-2 -52 -11 -80 -22z"/>
</g>
</svg>
