<svg width="92" height="102" viewBox="0 0 92 102" fill="none" xmlns="http://www.w3.org/2000/svg">
<path d="M42.4545 9.13333C42.1 10.2103 41.9091 11.3538 41.9091 12.5385C41.9091 14.6615 43.7418 16.3846 46 16.3846H70.5455C71.6304 16.3846 72.671 15.9794 73.4382 15.2581C74.2054 14.5368 74.6364 13.5585 74.6364 12.5385C74.6367 11.3842 74.4529 10.2363 74.0909 9.13333M42.4545 9.13333C43.2292 6.77794 44.7857 4.71761 46.896 3.25405C49.0062 1.79049 51.5595 1.00058 54.1818 1H62.3636C67.8836 1 72.5473 4.42564 74.0909 9.13333M42.4545 9.13333C40.4036 9.25128 38.3636 9.38974 36.3236 9.54359C30.1545 10.0256 25.5455 14.9641 25.5455 20.7846V31.7692M74.0909 9.13333C76.1418 9.25128 78.1818 9.38974 80.2218 9.54359C86.3909 10.0256 91 14.9641 91 20.7846V74.0769C91 77.1371 89.707 80.072 87.4054 82.2358C85.1038 84.3997 81.9822 85.6154 78.7273 85.6154H66.4545M25.5455 31.7692H7.13636C3.74909 31.7692 1 34.3538 1 37.5385V95.2308C1 98.4154 3.74909 101 7.13636 101H60.3182C63.7055 101 66.4545 98.4154 66.4545 95.2308V85.6154M25.5455 31.7692H60.3182C63.7055 31.7692 66.4545 34.3538 66.4545 37.5385V85.6154M21.4545 70.2308L29.6364 77.9231L46 58.6923" stroke="white" stroke-width="1.5" stroke-linecap="round" stroke-linejoin="round"/>
<rect x="0.0106623" y="0.578193" width="0.770676" height="25.8929" rx="0.385338" transform="matrix(0.674743 0.738053 -0.647073 0.762428 46.3261 57.6681)" fill="#D9D9D9" stroke="#D58E72" stroke-width="0.770676"/>
<rect x="-0.547165" y="0.0460458" width="0.829883" height="11.9817" rx="0.414941" transform="matrix(-0.596452 0.802649 -0.722204 -0.69168 29.8099 78.3286)" fill="#D9D9D9" stroke="#D58E72" stroke-width="0.829883"/>
</svg>
