<svg width="96" height="94" viewBox="0 0 96 94" fill="none" xmlns="http://www.w3.org/2000/svg">
<path d="M44.297 8.48267C43.9267 9.47344 43.7273 10.5255 43.7273 11.6154C43.7273 13.5686 45.6415 15.1538 48 15.1538H73.6364C74.7696 15.1538 75.8563 14.781 76.6576 14.1175C77.4589 13.4539 77.9091 12.5538 77.9091 11.6154C77.9095 10.5534 77.7174 9.49743 77.3394 8.48267M44.297 8.48267C45.1061 6.31571 46.7317 4.4202 48.9358 3.07372C51.1399 1.72725 53.8066 1.00053 56.5455 1H65.0909C70.8562 1 75.7271 4.15159 77.3394 8.48267M44.297 8.48267C42.1549 8.59118 40.0242 8.71856 37.8936 8.8601C31.4503 9.30359 26.6364 13.847 26.6364 19.2018V29.3077M77.3394 8.48267C79.4814 8.59118 81.6121 8.71856 83.7428 8.8601C90.1861 9.30359 95 13.847 95 19.2018V68.2308C95 71.0461 93.6495 73.7462 91.2456 75.737C88.8418 77.7278 85.5814 78.8462 82.1818 78.8462H69.3636M26.6364 29.3077H7.40909C3.87127 29.3077 1 31.6855 1 34.6154V87.6923C1 90.6222 3.87127 93 7.40909 93H62.9545C66.4924 93 69.3636 90.6222 69.3636 87.6923V78.8462M26.6364 29.3077H62.9545C66.4924 29.3077 69.3636 31.6855 69.3636 34.6154V78.8462M22.3636 64.6923L30.9091 71.7692L48 54.0769" stroke="white" stroke-width="1.5" stroke-linecap="round" stroke-linejoin="round"/>
</svg>
