<svg width="138" height="83" viewBox="0 0 138 83" fill="none" xmlns="http://www.w3.org/2000/svg">
<rect x="1" y="1" width="136" height="24.3309" rx="4" fill="white" fill-opacity="0.1" stroke="white" stroke-width="2"/>
<rect x="1" y="29.0862" width="136" height="24.3309" rx="4" fill="white" fill-opacity="0.1" stroke="white" stroke-width="2"/>
<rect x="1" y="57.1726" width="136" height="24.3309" rx="4" fill="white" fill-opacity="0.1" stroke="white" stroke-width="2"/>
<path d="M20.5066 11.8488C20.5066 12.9736 19.5698 13.9207 18.3703 13.9207C17.1707 13.9207 16.2339 12.9736 16.2339 11.8488C16.2339 10.724 17.1707 9.77686 18.3703 9.77686C19.5698 9.77686 20.5066 10.724 20.5066 11.8488Z" fill="#D9D9D9" fill-opacity="0.1" stroke="#D58E72" stroke-width="2"/>
<path d="M20.5066 39.9352C20.5066 41.0601 19.5698 42.0072 18.3703 42.0072C17.1707 42.0072 16.2339 41.0601 16.2339 39.9352C16.2339 38.8104 17.1707 37.8633 18.3703 37.8633C19.5698 37.8633 20.5066 38.8104 20.5066 39.9352Z" fill="#D9D9D9" fill-opacity="0.1" stroke="white" stroke-width="2"/>
<path d="M20.5066 67.1437C20.5066 68.2685 19.5698 69.2156 18.3703 69.2156C17.1707 69.2156 16.2339 68.2685 16.2339 67.1437C16.2339 66.0189 17.1707 65.0718 18.3703 65.0718C19.5698 65.0718 20.5066 66.0189 20.5066 67.1437Z" fill="#D9D9D9" fill-opacity="0.1" stroke="white" stroke-width="2"/>
<path d="M29.4676 67.1437C29.4676 68.2685 28.5307 69.2156 27.3312 69.2156C26.1316 69.2156 25.1948 68.2685 25.1948 67.1437C25.1948 66.0189 26.1316 65.0718 27.3312 65.0718C28.5307 65.0718 29.4676 66.0189 29.4676 67.1437Z" fill="#D9D9D9" fill-opacity="0.1" stroke="white" stroke-width="2"/>
<path d="M38.4285 67.1437C38.4285 68.2685 37.4917 69.2156 36.2921 69.2156C35.0926 69.2156 34.1558 68.2685 34.1558 67.1437C34.1558 66.0189 35.0926 65.0718 36.2921 65.0718C37.4917 65.0718 38.4285 66.0189 38.4285 67.1437Z" fill="#D9D9D9" fill-opacity="0.1" stroke="white" stroke-width="2"/>
<path d="M29.4676 39.9352C29.4676 41.0601 28.5307 42.0072 27.3312 42.0072C26.1316 42.0072 25.1948 41.0601 25.1948 39.9352C25.1948 38.8104 26.1316 37.8633 27.3312 37.8633C28.5307 37.8633 29.4676 38.8104 29.4676 39.9352Z" fill="#D9D9D9" fill-opacity="0.1" stroke="white" stroke-width="2"/>
<path d="M38.4285 39.9352C38.4285 41.0601 37.4917 42.0072 36.2921 42.0072C35.0926 42.0072 34.1558 41.0601 34.1558 39.9352C34.1558 38.8104 35.0926 37.8633 36.2921 37.8633C37.4917 37.8633 38.4285 38.8104 38.4285 39.9352Z" fill="#D9D9D9" fill-opacity="0.1" stroke="white" stroke-width="2"/>
<path d="M29.4676 11.8488C29.4676 12.9736 28.5307 13.9207 27.3312 13.9207C26.1316 13.9207 25.1948 12.9736 25.1948 11.8488C25.1948 10.724 26.1316 9.77686 27.3312 9.77686C28.5307 9.77686 29.4676 10.724 29.4676 11.8488Z" fill="#D9D9D9" fill-opacity="0.1" stroke="#D58E72" stroke-width="2"/>
<path d="M38.4285 11.8488C38.4285 12.9736 37.4917 13.9207 36.2921 13.9207C35.0926 13.9207 34.1558 12.9736 34.1558 11.8488C34.1558 10.724 35.0926 9.77686 36.2921 9.77686C37.4917 9.77686 38.4285 10.724 38.4285 11.8488Z" fill="#D9D9D9" fill-opacity="0.1" stroke="white" stroke-width="2"/>
<rect x="64.2816" y="10.3128" width="50.6575" height="1.31654" rx="0.658272" fill="#2D3246" stroke="white" stroke-width="1.31654"/>
<rect x="64.2816" y="38.3992" width="50.6575" height="1.31654" rx="0.658272" fill="#2D3246" stroke="white" stroke-width="1.31654"/>
<rect x="64.2816" y="65.6077" width="50.6575" height="1.31654" rx="0.658272" fill="#2D3246" stroke="white" stroke-width="1.31654"/>
</svg>
