<svg width="96" height="84" viewBox="0 0 96 84" fill="none" xmlns="http://www.w3.org/2000/svg">
<path d="M71.5 16.5455L95 42L71.5 67.4545M24.5 67.4545L1 42L24.5 16.5455M58.0714 2L37.9286 82" stroke="white" stroke-width="2" stroke-linecap="round" stroke-linejoin="round"/>
<mask id="path-2-inside-1_995_2631" fill="white">
<path d="M56.7206 2.1176C56.8848 1.46078 57.475 0.999999 58.152 0.999998L58.2464 0.999998C58.4134 0.999997 58.5781 1.03888 58.7274 1.11355C59.1789 1.33927 59.4126 1.84853 59.2895 2.33801L39.231 82.0826C39.0953 82.6219 38.6104 83 38.0543 83C37.2649 83 36.6857 82.2581 36.8772 81.4923L56.7206 2.1176Z"/>
</mask>
<path d="M56.7206 2.1176C56.8848 1.46078 57.475 0.999999 58.152 0.999998L58.2464 0.999998C58.4134 0.999997 58.5781 1.03888 58.7274 1.11355C59.1789 1.33927 59.4126 1.84853 59.2895 2.33801L39.231 82.0826C39.0953 82.6219 38.6104 83 38.0543 83C37.2649 83 36.6857 82.2581 36.8772 81.4923L56.7206 2.1176Z" fill="#D9D9D9"/>
<path d="M39.231 82.0826L36.3216 81.3508L39.231 82.0826ZM56.3801 1.6062L36.3216 81.3508L42.1404 82.8144L62.1989 3.06981L56.3801 1.6062ZM39.7876 82.2199L59.631 2.8452L53.8102 1.39L33.9667 80.7647L39.7876 82.2199ZM58.152 4L58.2464 4L58.2464 -2L58.152 -2L58.152 4ZM58.2464 4C57.9476 4 57.653 3.93044 57.3858 3.79684L60.0691 -1.56973C59.5031 -1.85269 58.8791 -2 58.2464 -2L58.2464 4ZM38.0543 80C39.2166 80 40.0695 81.0923 39.7876 82.2199L33.9667 80.7647C33.3019 83.424 35.3132 86 38.0543 86L38.0543 80ZM36.3216 81.3508C36.5214 80.5566 37.2354 80 38.0543 80L38.0543 86C39.9854 86 41.6693 84.6872 42.1404 82.8144L36.3216 81.3508ZM62.1989 3.06981C62.6654 1.21514 61.7796 -0.714456 60.0691 -1.56973L57.3858 3.79684C56.5781 3.39301 56.1599 2.48191 56.3801 1.6062L62.1989 3.06981ZM59.631 2.8452C59.4614 3.52387 58.8516 4 58.152 4L58.152 -2C56.0983 -2 54.3082 -0.60231 53.8102 1.39L59.631 2.8452Z" fill="#D58E72" mask="url(#path-2-inside-1_995_2631)"/>
</svg>
