<svg width="100" height="100" viewBox="0 0 100 100" fill="none" xmlns="http://www.w3.org/2000/svg">
<circle cx="50.0005" cy="50" r="49" stroke="white" stroke-width="2"/>
<line x1="4.99756" y1="70.5293" x2="94.9976" y2="70.5293" stroke="white" stroke-width="2"/>
<path d="M68.0005 51C68.0005 64.4395 65.8865 76.5614 62.5032 85.2867C60.8103 89.6526 58.8191 93.1174 56.659 95.4736C54.4996 97.829 52.2483 99 50.0005 99C47.7526 99 45.5013 97.829 43.342 95.4736C41.1819 93.1174 39.1907 89.6526 37.4978 85.2867C34.1145 76.5614 32.0005 64.4395 32.0005 51C32.0005 37.5605 34.1145 25.4386 37.4978 16.7133C39.1907 12.3474 41.1819 8.88261 43.342 6.52642C45.5013 4.17095 47.7526 3 50.0005 3C52.2483 3 54.4996 4.17095 56.659 6.52642C58.8191 8.88261 60.8103 12.3474 62.5032 16.7133C65.8865 25.4386 68.0005 37.5605 68.0005 51Z" stroke="white" stroke-width="2"/>
<line x1="6.01185" y1="26.0001" x2="94.0562" y2="27.0006" stroke="white" stroke-width="2"/>
<line y1="49.2556" x2="100" y2="49.2556" stroke="#D58E72" stroke-width="2"/>
<line x1="50.0005" x2="50.0005" y2="100" stroke="#D58E72" stroke-width="2"/>
</svg>
