<svg width="97" height="92" viewBox="0 0 97 92" fill="none" xmlns="http://www.w3.org/2000/svg">
<path d="M48.5 91C59.0291 90.9994 69.2599 87.686 77.5859 81.5801C85.912 75.4742 91.8618 66.9215 94.5011 57.265M48.5 91C37.9708 90.9994 27.7401 87.686 19.414 81.5801C11.088 75.4742 5.13821 66.9215 2.49891 57.265M48.5 91C61.6152 91 72.25 70.85 72.25 46C72.25 21.15 61.6152 1 48.5 1M48.5 91C35.3847 91 24.75 70.85 24.75 46C24.75 21.15 35.3847 1 48.5 1M94.5011 57.265C95.4774 53.665 95.9999 49.89 95.9999 46C96.013 38.2606 93.9092 30.6499 89.8936 23.91M94.5011 57.265C80.4261 64.6569 64.5929 68.5239 48.5 68.5C31.8117 68.5 16.1314 64.425 2.49891 57.265M2.49891 57.265C1.50007 53.5849 0.99645 49.7998 1.00002 46C1.00002 37.975 3.21668 30.435 7.1064 23.91M48.5 1C56.9246 0.996674 65.1984 3.11679 72.4726 7.14282C79.7468 11.1689 85.7594 16.9558 89.8936 23.91M48.5 1C40.0754 0.996674 31.8015 3.11679 24.5273 7.14282C17.2531 11.1689 11.2405 16.9558 7.1064 23.91M89.8936 23.91C78.4021 33.3396 63.7028 38.5207 48.5 38.5C32.6772 38.5 18.2056 33 7.1064 23.91" stroke="white" stroke-width="2" stroke-linecap="round" stroke-linejoin="round"/>
</svg>
