<?xml version="1.0" encoding="UTF-8"?>
<svg width="300" height="300" version="1.1" viewBox="0 0 79.375 79.375" xmlns="http://www.w3.org/2000/svg">
 <g>
  <path transform="scale(.26458)" d="m160.36 198.69a153.03 153.03 0 0 1 1.0371 0.06836 153.03 153.03 0 0 0-1.0371-0.06836zm6.3594 0.5293a153.03 153.03 0 0 1 0.89453 0.0957 153.03 153.03 0 0 0-0.89453-0.0957zm2.1035 0.23437a153.03 153.03 0 0 1 0.85742 0.10352 153.03 153.03 0 0 0-0.85742-0.10352zm7.0332 0.99805a49.573 49.573 0 0 0-25.859 17.348 59.233 59.233 0 0 1 7.4004 0.87305 116.53 116.53 0 0 0-9.4199 6.7285 112.38 101.5 0 0 0-7.2695-6.3496 59.233 59.233 0 0 1 9.2891-1.252 49.573 49.573 0 0 0-25.197-17.158 12.632 20.439 0 0 0-0.00195-0.01172 153.03 153.03 0 0 0-118.07 99.367h288.25a153.03 153.03 0 0 0-119.12-99.545z" fill="#f2f2f2"/>
  <path transform="scale(.26458)" d="m150 133.01a42.652 42.652 0 0 0-35.936 19.678 42.652 42.652 0 0 1 6.7168 22.975 42.652 42.652 0 0 1-6.7168 22.975 42.652 42.652 0 0 0 35.936 19.678 42.652 42.652 0 0 0 36.059-19.873 42.652 42.652 0 0 1-6.5918-22.779 42.652 42.652 0 0 1 6.5938-22.779 42.652 42.652 0 0 0-36.061-19.873z" fill="#d4ab75"/>
  <circle cx="39.397" cy="27.753" r="17.931" fill="#d7b17f" stroke-width=".38513"/>
  <path d="m40.054 9.6386a17.39 17.39 0 0 0-2.0546 0.12249 21.135 21.135 0 0 1 19.194 20.211 17.39 17.39 0 0 0 0.2517-2.9427 17.39 17.39 0 0 0-17.391-17.391z" fill="#1a1a1a" stroke-width=".3824"/>
  <path d="m38.738 9.6386a17.39 17.39 0 0 1 2.0547 0.12249 21.135 21.135 0 0 0-19.194 20.211 17.39 17.39 0 0 1-0.2517-2.9427 17.39 17.39 0 0 1 17.391-17.391z" fill="#1a1a1a" stroke-width=".3824"/>
  <circle cx="23.715" cy="29.617" r="3.8363" fill="#d7b17f" stroke-width=".38513"/>
  <path d="m21.599 27.319a3.1232 3.1232 0 0 0-1.0072 2.2973 3.1232 3.1232 0 0 0 1.0403 2.3266 17.931 17.931 0 0 1-0.16699-2.4379 17.931 17.931 0 0 1 0.13389-2.1859z" fill="#d4ab75" stroke-width=".31354"/>
 </g>
 <g fill="#1a1a1a">
  <path d="m39.111 7.111a16.441 16.441 0 0 1 9.645 3.1258 21.593 21.593 0 0 0-6.2874-0.93571 21.593 21.593 0 0 0-19.737 12.836 16.441 16.441 0 0 1 16.38-15.026z" stroke-width=".70816"/>
  <path d="m45.368 8.5905a11.803 11.803 0 0 0-4.3714 0.83949 14.865 14.865 0 0 1 0.80737-0.02166 14.865 14.865 0 0 1 14.858 14.412 11.803 11.803 0 0 0 0.50937-3.4267 11.803 11.803 0 0 0-11.804-11.804z" stroke-width=".50664"/>
  <path d="m39.525 9.0319a16.295 16.295 0 0 0-15.834 12.445 30.084 30.084 0 0 1 19.567-7.2327 30.084 30.084 0 0 1 9.4681 1.5296 16.295 16.295 0 0 0-13.201-6.742z" stroke-width=".50661"/>
  <path d="m42.278 9.2672a14.121 14.121 0 0 0-7.1737 2.0181 21.829 21.829 0 0 1 1.0882-0.02761 21.829 21.829 0 0 1 20.228 13.625 14.121 14.121 0 0 0 0.07916-1.4945 14.121 14.121 0 0 0-14.121-14.121 14.121 14.121 0 0 0-0.10085 0z" stroke-width=".33604"/>
  <path d="m31.311 8.3197a3.405 3.405 0 0 0-1.0861 3.7695 3.405 3.405 0 0 0 3.5066 2.2786 5.0511 5.0511 0 0 1-2.3991-2.8057 5.0511 5.0511 0 0 1-0.02131-3.2424z" stroke-width=".13762"/>
  <path d="m51.797 9.6044a4.3431 4.3431 0 0 1 3.411 3.6608 4.3431 4.3431 0 0 1-2.6735 4.6155 6.4427 6.4427 0 0 0 1.1096-4.5759 6.4427 6.4427 0 0 0-1.8471-3.7004z" stroke-width=".17553"/>
  <path d="m41.949 6.6142a3.2664 3.2664 0 0 0-3.2103 1.9635 3.2664 3.2664 0 0 0 1.005 3.8836 4.8454 4.8454 0 0 1 0.11997-3.5392 4.8454 4.8454 0 0 1 2.0853-2.3079z" stroke-width=".13202"/>
  <path d="m28.811 18.485a4.3431 4.3431 0 0 0 4.9752-0.53246 4.3431 4.3431 0 0 0 1.0025-5.2389 6.4427 6.4427 0 0 1-2.1584 4.1847 6.4427 6.4427 0 0 1-3.8193 1.5866z" stroke-width=".17553"/>
  <path d="m36.984 16.685a6.0917 6.0917 0 0 0 6.9783-0.74684 6.0917 6.0917 0 0 0 1.4062-7.3481 9.0366 9.0366 0 0 1-3.0274 5.8695 9.0366 9.0366 0 0 1-5.357 2.2254z" stroke-width=".2462"/>
  <circle cx="46.787" cy="25.247" r="1.504" stroke-width=".25953"/>
 </g>
 <g>
  <path d="m47.57 33.689a13.941 13.941 0 0 1-8.4406 2.8456 13.941 13.941 0 0 1-7.3236-2.0791 7.9516 7.9516 0 0 0 7.8343 6.5954 7.9516 7.9516 0 0 0 7.9299-7.3619z" fill="#e6e6e6" stroke-width=".38513"/>
  <circle cx="32.588" cy="25.247" r="1.504" fill="#1a1a1a" stroke-width=".25953"/>
  <circle transform="scale(-1,1)" cx="-55.66" cy="29.617" r="3.8363" fill="#d7b17f" stroke-width=".38513"/>
  <path d="m56.955 27.319a3.1232 3.1232 0 0 1 1.0072 2.2973 3.1232 3.1232 0 0 1-1.0403 2.3266 17.931 17.931 0 0 0 0.16699-2.4379 17.931 17.931 0 0 0-0.13389-2.1859z" fill="#d4ab75" stroke-width=".31354"/>
  <ellipse cx="39.436" cy="59.682" rx="4.422" ry="2.4311" fill="#f2f2f2"/>
  <path d="m49.625 52.445a13.449 13.449 0 0 0-9.9371 5.1814 16.07 16.07 0 0 1 11.178 5.4178 13.474 13.474 0 0 0 0.56526-3.8616 13.474 13.474 0 0 0-1.8059-6.7377z" opacity=".1"/>
  <path d="m29.75 52.445a13.449 13.449 0 0 1 9.9371 5.1814 16.07 16.07 0 0 0-11.178 5.4178 13.474 13.474 0 0 1-0.56526-3.8616 13.474 13.474 0 0 1 1.8059-6.7377z" opacity=".1"/>
  <path transform="scale(.26458)" d="m150 242.11a11.803 61.573 0 0 0-11.781 57.891h23.562a11.803 61.573 0 0 0-11.781-57.891z" fill="#4d4d4d"/>
  <circle cx="39.688" cy="60.965" r="3.4112" fill="#4d4d4d"/>
 </g>
 <g fill="#f2f2f2">
  <path d="m49.379 52.283a13.116 13.116 0 0 0-9.6911 5.0532 15.672 15.672 0 0 1 10.901 5.2837 13.14 13.14 0 0 0 0.55126-3.766 13.14 13.14 0 0 0-1.7612-6.5709z"/>
  <path d="m29.996 52.283a13.116 13.116 0 0 1 9.6911 5.0532 15.672 15.672 0 0 0-10.901 5.2837 13.14 13.14 0 0 1-0.55126-3.766 13.14 13.14 0 0 1 1.7612-6.5709z"/>
  <path transform="scale(.26458)" d="m88.885 81.604c-1.8754 0-3.3848 1.9768-3.3848 4.4336v20.861c0 2.4568 1.5094 4.4336 3.3848 4.4336h16.193l18.393-29.729z" fill-opacity=".1"/>
 </g>
 <rect x="22.622" y="21.591" width="15.905" height="7.8659" rx=".89567" ry="1.1733" fill="#1a1a1a" fill-opacity=".30056" stroke="#1a1a1a" stroke-width=".70035"/>
 <path d="m41.413 21.591c-0.4962 0-0.89555 0.52303-0.89555 1.1731v5.5196c0 0.65003 0.39935 1.1731 0.89555 1.1731h4.2845l4.8664-7.8657z" fill="#f2f2f2" fill-opacity=".1"/>
 <rect x="40.523" y="21.591" width="15.905" height="7.8659" rx=".89567" ry="1.1733" fill="#1a1a1a" fill-opacity=".30056" stroke="#1a1a1a" stroke-width=".70035"/>
</svg>
