<?xml version="1.0" encoding="UTF-8"?>
<svg width="300" height="300" version="1.1" viewBox="0 0 79.375 79.375" xmlns="http://www.w3.org/2000/svg">
 <g>
  <rect x="11.204" y="18.072" width="60.42" height="30.697" rx="0" ry="0" fill="#ccc"/>
  <rect x="11.792" y="15.557" width="60.461" height="6.4834" rx="0" ry="0" fill="#5fd3bc"/>
  <path d="m33.909 47.97a8.5762 8.5762 0 0 1 2.9357 6.4596 8.5762 8.5762 0 0 1-3.1869 6.6709h16.207v-0.0057a8.5762 8.5762 0 0 1-3.1797-6.6652 8.5762 8.5762 0 0 1 2.9347-6.4596z" fill="#b3b3b3"/>
 </g>
 <g fill="#999">
  <rect x="28.139" y="25.299" width="27.029" height="23.794" rx=".94125" ry=".94125"/>
  <path d="m60.908 25.299c-0.52145 0-0.94103 0.41958-0.94103 0.94103v21.912c0 0.52145 0.41958 0.94103 0.94103 0.94103h10.847v-23.794z"/>
  <path d="m22.4 25.299c0.52145 0 0.94103 0.41958 0.94103 0.94103v21.912c0 0.52145-0.41958 0.94103-0.94103 0.94103h-10.847v-23.794z"/>
 </g>
 <rect x="11.129" y="15.557" width="61.2" height="33.654" rx="1.8607" ry="1.8607" fill="none" stroke="#333" stroke-width="2.1167"/>
 <rect x="6.0554" y="51.994" width="32.29" height="13.397" rx="0" ry="0" fill="#ccc"/>
 <rect x="5.0228" y="47.54" width="33.157" height="6.0837" rx="0" ry="0" fill="#5fd3bc"/>
 <g fill="#999">
  <rect x="16.092" y="56.348" width="11.82" height="9.1091" rx=".52614" ry=".52614"/>
  <path d="m31.961 56.348c-0.29148 0-0.52607 0.23458-0.52607 0.52607v8.0569c0 0.29148 0.23458 0.52607 0.52607 0.52607h6.2187v-9.109z"/>
  <path d="m12.11 56.348c0.29148 0 0.52607 0.23458 0.52607 0.52607v8.0569c0 0.29148-0.23458 0.52607-0.52607 0.52607h-6.2187v-9.109z"/>
 </g>
 <rect x="5.8987" y="47.168" width="32.542" height="17.895" rx=".98939" ry=".98939" fill="none" stroke="#333" stroke-width="2.1167"/>
 <g>
  <rect x="64.083" y="53.55" width="9.3929" height="11.513" rx="0" ry="0" fill="#ccc"/>
  <rect x="64.112" y="48.436" width="9.6538" height="6.3244" rx="0" ry="0" fill="#5fd3bc"/>
  <path d="m66.401 56.14c-0.27536 0-0.49713 0.22177-0.49713 0.49713v7.9323h5.8027v-7.9323c0-0.27536-0.22177-0.49713-0.49713-0.49713z" fill="#999"/>
 </g>
 <rect transform="rotate(90)" x="47.982" y="-73.476" width="17.081" height="9.3929" rx=".51932" ry=".51932" fill="none" stroke="#333" stroke-width="2.1167"/>
 <g fill="#33b79d">
  <rect x="54.022" y="19.673" width="6.6829" height="1.3704" rx=".30221" ry=".30221"/>
  <rect x="62.618" y="19.673" width="6.6829" height="1.3704" rx=".30221" ry=".30221"/>
  <rect x="45.584" y="19.673" width="6.6829" height="1.3704" rx=".30221" ry=".30221"/>
  <rect x="18.638" y="18.595" width="6.6829" height="2.4481" rx=".46237" ry=".46237"/>
  <rect x="18.668" y="51.794" width="6.6829" height="1.3704" rx=".30221" ry=".30221"/>
  <rect x="27.263" y="51.794" width="6.6829" height="1.3704" rx=".30221" ry=".30221"/>
  <rect x="10.23" y="51.794" width="6.6829" height="1.3704" rx=".30221" ry=".30221"/>
  <rect x="10.23" y="48.675" width="6.6829" height="2.4481" rx=".46237" ry=".46237"/>
  <rect x="66.959" y="49.335" width="4.0573" height="1.746" rx=".28071" ry=".32977"/>
  <rect x="65.747" y="51.505" width="6.1729" height=".63568" rx=".1424" ry=".1424"/>
  <rect x="65.747" y="52.536" width="6.1729" height=".63568" rx=".1424" ry=".1424"/>
  <rect x="65.747" y="53.601" width="6.1729" height=".63568" rx=".1424" ry=".1424"/>
 </g>
</svg>
