<?xml version="1.0" encoding="UTF-8"?>
<svg width="300" height="300" version="1.1" viewBox="0 0 300 300" xmlns="http://www.w3.org/2000/svg" xmlns:xlink="http://www.w3.org/1999/xlink">
 <defs>
  <linearGradient id="linearGradient823" x1="72.143" x2="261.43" y1="-876.09" y2="-1106.8" gradientUnits="userSpaceOnUse">
   <stop stop-color="#ffce68" offset="0"/>
   <stop stop-color="#ffab00" offset="1"/>
  </linearGradient>
  <filter id="filter5061" x="-.043991" y="-.052813" width="1.088" height="1.1056" color-interpolation-filters="sRGB">
   <feGaussianBlur stdDeviation="2.5063625"/>
  </filter>
  <filter id="filter5089" x="-.050947" y="-.045375" width="1.1019" height="1.0908" color-interpolation-filters="sRGB">
   <feGaussianBlur stdDeviation="3.0720259"/>
  </filter>
 </defs>
 <g transform="translate(0 -822.52)">
  <rect transform="scale(1,-1)" y="-1122.5" width="300" height="300" fill="url(#linearGradient823)" stroke-width=".77206"/>
  <g>
   <path d="m169.14 849.11c-3.5499-0.0502-7.2001 0.10602-10.857 0.38867-27.307 2.1103-40.494 9.9934-60.404 25.117-22.144 16.82-26.066 35.883-25.977 46.555 0.24918 29.776 3.2988 42.429 15.348 41.805 3.712-0.19235 7.1499-1.3587 10.443-3.1133l110.95-26.398-9.6308-40.471c5.9227-6.3076 6.31-12.793 2.9922-24.959-3.9822-14.602-17.478-18.706-32.861-18.924z" filter="url(#filter5061)" opacity=".3" stroke-width=".50611"/>
  </g>
  <ellipse cx="157.59" cy="898.17" r="57.872" fill="#fff" stroke-width=".86192"/>
  <ellipse cx="138.84" cy="944.85" r="37.305" fill="#ffce68" stroke-width="1.187"/>
  <ellipse cx="150.71" cy="975.38" r="104.29" fill="#fff" fill-opacity=".97222" stroke-width="1.187"/>
  <g>
   <path d="m208.64 935.46-107.06 25.473c-0.27924 0.67994-0.55804 1.3576-0.8175 2.0245-15.728 40.428-15.114 83.129 1.5558 108.21 2.68 4.0327 8.8587 10.484 13.031 13.609 8.621 6.4564 20.671 10.942 34.517 12.849v-0.011c1.8378 0.2656 8.3131 0.3962 14.392 0.2932 11.588-0.185 15.315-0.7237 23.134-3.345 23.132-7.7545 39.563-27.266 45.245-53.726 1.5692-7.307 1.9271-21.904 0.80038-32.644-1.5279-14.564-5.5925-31.581-10.683-44.723-4.0005-10.327-8.7942-19.762-14.118-28.013z" filter="url(#filter5089)" opacity=".3" stroke-width=".51406"/>
   <path d="m204.64 935.46-107.06 25.473c-0.27923 0.67994-0.55804 1.3576-0.8175 2.0245-15.728 40.428-15.114 83.129 1.5558 108.21 2.68 4.0327 8.8587 10.484 13.031 13.609 8.621 6.4564 20.671 10.942 34.517 12.849v-0.011c1.8378 0.2656 8.3131 0.3962 14.392 0.2932 11.588-0.185 15.315-0.7237 23.134-3.345 23.132-7.7545 39.563-27.266 45.245-53.726 1.5692-7.307 1.9271-21.904 0.80038-32.644-1.5279-14.564-5.5925-31.581-10.683-44.723-4.0005-10.327-8.7942-19.762-14.118-28.013z" fill="#fff" stroke-width=".51406"/>
   <path d="m76.515 911.89 118.05-31.184 12.075 50.752-121.68 28.951z" fill="#fff" stroke-width=".50611"/>
  </g>
  <path d="m194.56 880.71c5.5848 14.665 2.3602 14.485-14.876 25.462-9.8051 6.2448-19.326 12.3-32.719 19.298-13.392 6.9977-30.346 18.59-34.174 21.601-33.599 26.427-22.78 1.0643-36.163-23.394 22.478-32.019 68.605-3.3779 117.93-42.967z" fill-opacity=".1"/>
  <path d="m95.879 872.61c-22.144 16.82-26.065 35.883-25.976 46.555 0.24918 29.776 3.2972 42.428 15.346 41.803 12.083-0.62616 21.279-11.514 31.95-19.744 16.519-12.74 30.561-18.218 62.716-37.85 21.213-12.951 25.399-17.862 20.086-37.346-4.9012-17.972-24.212-20.044-43.718-18.536-27.307 2.1103-40.494 9.9945-60.405 25.118z" fill="#fff"/>
  <path d="m229.95 1015.5a105.15 105.15 0 0 1-87.915 81.491c1.2638 0.2233 2.5383 0.4336 3.835 0.6121v-0.013c1.8378 0.2656 8.3131 0.3962 14.392 0.2932 11.588-0.1849 15.315-0.7236 23.134-3.3449 23.132-7.7545 39.563-27.266 45.245-53.726 1.2334-5.7436 1.7058-15.974 1.3097-25.312z" fill-opacity=".1" stroke-width=".51406"/>
  <path d="m38.787 991.68c12.503 30.844 42.451 63.157 75.733 63.18 15.175-0.02 30.044-4.2622 42.945-12.251 13.06 8.299 28.207 12.722 43.681 12.756 33.112-0.03 62.939-32.146 75.546-62.764-16.544 24.246-42.635 29.049-68.445 29.054-18.011-0.038-35.641-5.1861-50.843-14.845-15.016 9.299-32.323 14.237-49.986 14.261-25.925-0.042-50.533-4.7634-68.632-29.391z" fill="#603e1f"/>
 </g>
</svg>
