<?xml version="1.0" encoding="UTF-8"?>
<svg width="300" height="300" version="1.1" viewBox="0 0 79.375 79.375" xmlns="http://www.w3.org/2000/svg">
 <defs>
  <filter id="filter1438" x="-.012643" y="-.01142" width="1.0253" height="1.0228" color-interpolation-filters="sRGB">
   <feGaussianBlur stdDeviation="0.40558117"/>
  </filter>
 </defs>
 <g transform="translate(0 -217.62)">
  <circle cx="39.688" cy="257.31" r="39.688" fill="#2771ca"/>
  <path transform="matrix(.26458 0 0 .26458 0 217.62)" d="m120.85 54.146-35.596 186.55 75.873 58.869a150 150 0 0 0 138.87-149.56 150 150 0 0 0-0.36523-10.355l-69.34-72.982-8.4219 114.42-101.02-126.94z" filter="url(#filter1438)" opacity=".1"/>
  <path d="m31.317 231.95c-6.0152 0-10.857 2.3299-10.857 5.224v41.179c0 2.8942 4.8422 5.2244 10.857 5.2244h5.4572l-1.0947-10.269 11.76 8e-3 -1.0301 10.261h4.4944c6.0152 0 10.858-2.3303 10.858-5.2244v-41.179c2e-6 -2.8942-4.8426-5.224-10.858-5.224h-0.30654l-3.1731 28.472h-11.763l-3.6849-28.472z" fill="#e6e6e6"/>
 </g>
</svg>
