<svg width="107" height="100" viewBox="0 0 107 100" fill="none" xmlns="http://www.w3.org/2000/svg">
<path d="M43.84 6.10776C44.365 3.16265 47.1067 1 50.315 1H56.6908C59.8992 1 62.6408 3.16265 63.1658 6.10776L64.035 10.9656C64.4433 13.2695 66.275 15.117 68.585 16.019C70.9067 16.9101 73.5725 16.7906 75.6142 15.4321L79.9133 12.5685C81.1778 11.7266 82.7219 11.33 84.2709 11.4494C85.8198 11.5688 87.273 12.1965 88.3717 13.2206L92.8808 17.4263C95.1558 19.5401 95.4475 22.871 93.5808 25.3053L90.5067 29.31C89.0483 31.2119 88.92 33.6897 89.8825 35.8523C90.845 38.0095 92.8283 39.7103 95.3075 40.0907L100.517 40.9058C103.684 41.3948 106 43.9432 106 46.9318V52.8764C106 55.865 103.684 58.4189 100.517 58.9079L95.3017 59.7175C92.8283 60.0979 90.845 61.7987 89.8825 63.9559C88.92 66.1185 89.0483 68.5963 90.5067 70.4982L93.5808 74.5083C95.4475 76.9372 95.15 80.2681 92.8808 82.3873L88.3658 86.5876C87.2675 87.6103 85.8155 88.2371 84.2679 88.3565C82.7202 88.4759 81.1773 88.0802 79.9133 87.2397L75.6083 84.3761C73.5667 83.0176 70.9067 82.8981 68.5908 83.7947C66.2692 84.6912 64.4492 86.5387 64.035 88.8427L63.1658 93.7005C62.6408 96.6456 59.8992 98.8082 56.6908 98.8082H50.3092C47.1008 98.8082 44.365 96.6456 43.8342 93.7005L42.9708 88.8427C42.5567 86.5387 40.7308 84.6912 38.415 83.7892C36.0933 82.8981 33.4333 83.0176 31.3917 84.3761L27.0867 87.2397C24.4792 88.9785 20.9033 88.7014 18.6283 86.5876L14.1192 82.3819C13.0198 81.3585 12.346 80.0048 12.2178 78.562C12.0896 77.1191 12.5153 75.6807 13.4192 74.5029L16.4933 70.4982C17.9517 68.5963 18.08 66.1185 17.1233 63.9559C16.1608 61.7987 14.1717 60.0979 11.6983 59.7175L6.48333 58.9025C3.32167 58.4134 1 55.8595 1 52.8764V46.9318C1 43.9432 3.32167 41.3894 6.48333 40.9003L11.6983 40.0907C14.1717 39.7103 16.1608 38.0095 17.1233 35.8523C18.0858 33.6897 17.9575 31.2119 16.4933 29.31L13.425 25.2999C12.5212 24.1221 12.0954 22.6837 12.2236 21.2408C12.3518 19.7979 13.0256 18.4443 14.125 17.4209L18.6342 13.2206C19.7328 12.1965 21.186 11.5688 22.7349 11.4494C24.2839 11.33 25.8281 11.7266 27.0925 12.5685L31.3917 15.4321C33.4333 16.7906 36.0992 16.9101 38.415 16.0136C40.7308 15.117 42.5567 13.2695 42.965 10.9656L43.84 6.10776Z" stroke="white" stroke-width="1.5" stroke-linecap="round" stroke-linejoin="round"/>
<path d="M71.5 50.3699C71.5 54.8786 69.5509 59.2026 66.0815 62.3907C62.6121 65.5788 57.9065 67.3699 53 67.3699C48.0935 67.3699 43.3879 65.5788 39.9185 62.3907C36.4491 59.2026 34.5 54.8786 34.5 50.3699C34.5 45.8612 36.4491 41.5372 39.9185 38.3491C43.3879 35.1609 48.0935 33.3699 53 33.3699C57.9065 33.3699 62.6121 35.1609 66.0815 38.3491C69.5509 41.5372 71.5 45.8612 71.5 50.3699Z" stroke="#D58E72" stroke-width="1.5" stroke-linecap="round" stroke-linejoin="round"/>
</svg>
